HIERARCHY
ROOT root
{
	OFFSET 0.000000 0.000000 0.000000
	CHANNELS 6 Xposition Yposition Zposition Zrotation Yrotation Xrotation
	JOINT lhip
	{
		OFFSET 0.058581 -0.082280 -0.017664
		CHANNELS 3 Zrotation Yrotation Xrotation
		JOINT lknee
		{
			OFFSET 0.043451 -0.386469 0.008037
			CHANNELS 3 Zrotation Yrotation Xrotation
			JOINT lankle
			{
				OFFSET -0.014790 -0.426874 -0.037428
				CHANNELS 3 Zrotation Yrotation Xrotation
				JOINT ltoe
				{
					OFFSET 0.041054 -0.060286 0.122042
					CHANNELS 3 Zrotation Yrotation Xrotation
					End Site
					{
						OFFSET 0.000000 0.000000 0.000000
					}
				}
			}
		}
	}
	JOINT rhip
	{
		OFFSET -0.060310 -0.090513 -0.013543
		CHANNELS 3 Zrotation Yrotation Xrotation
		JOINT rknee
		{
			OFFSET -0.043257 -0.383688 -0.004843
			CHANNELS 3 Zrotation Yrotation Xrotation
			JOINT rankle
			{
				OFFSET 0.019056 -0.420046 -0.034562
				CHANNELS 3 Zrotation Yrotation Xrotation
				JOINT rtoe
				{
					OFFSET -0.034840 -0.062106 0.130323
					CHANNELS 3 Zrotation Yrotation Xrotation
					End Site
					{
						OFFSET 0.000000 0.000000 0.000000
					}
				}
			}
		}
	}
	JOINT lowerback
	{
		OFFSET 0.004439 0.124404 -0.038385
		CHANNELS 3 Zrotation Yrotation Xrotation
		JOINT upperback
		{
			OFFSET 0.004488 0.137956 0.026820
			CHANNELS 3 Zrotation Yrotation Xrotation
			JOINT chest
			{
				OFFSET -0.002265 0.056032 0.002855
				CHANNELS 3 Zrotation Yrotation Xrotation
				JOINT lowerneck
				{
					OFFSET -0.013390 0.211636 -0.033468
					CHANNELS 3 Zrotation Yrotation Xrotation
					JOINT upperneck
					{
						OFFSET 0.010113 0.088937 0.050410
						CHANNELS 3 Zrotation Yrotation Xrotation
						End Site
						{
							OFFSET 0.000000 0.000000 0.000000
						}
					}
				}
				JOINT lclavicle
				{
					OFFSET 0.071702 0.114000 -0.018898
					CHANNELS 3 Zrotation Yrotation Xrotation
					JOINT lshoulder
					{
						OFFSET 0.122921 0.045205 -0.019046
						CHANNELS 3 Zrotation Yrotation Xrotation
						JOINT lelbow
						{
							OFFSET 0.255332 -0.015649 -0.022946
							CHANNELS 3 Zrotation Yrotation Xrotation
							JOINT lwrist
							{
								OFFSET 0.265709 0.012698 -0.007375
								CHANNELS 3 Zrotation Yrotation Xrotation
								End Site
								{
									OFFSET 0.000000 0.000000 0.000000
								}
							}
						}
					}
				}
				JOINT rclavicle
				{
					OFFSET -0.082954 0.112472 -0.023707
					CHANNELS 3 Zrotation Yrotation Xrotation
					JOINT rshoulder
					{
						OFFSET -0.113228 0.046853 -0.008472
						CHANNELS 3 Zrotation Yrotation Xrotation
						JOINT relbow
						{
							OFFSET -0.260127 -0.014369 -0.031269
							CHANNELS 3 Zrotation Yrotation Xrotation
							JOINT rwrist
							{
								OFFSET -0.269108 0.006794 -0.006027
								CHANNELS 3 Zrotation Yrotation Xrotation
								End Site
								{
									OFFSET 0.000000 0.000000 0.000000
								}
							}
						}
					}
				}
			}
		}
	}
}
MOTION
Frames: 11
Frame Time: 0.033333
-1.524568 0.215405 0.948383 97.198245 -4.030812 85.082082 -8.673796 -0.856041 -2.755974 -9.317571 -11.955439 33.345416 12.728986 10.802103 -22.395463 0.000000 -0.000000 0.000000 -2.317817 -1.468630 -23.272225 -0.857520 -1.597055 103.400750 3.133616 -13.568430 12.367804 0.000000 -0.000000 0.000000 -3.440835 -3.241053 24.111555 -0.675096 4.091321 -11.021174 -0.896847 0.009073 6.223494 0.822159 -4.476700 -21.543615 1.567944 2.791130 5.432918 -30.949447 9.550783 -6.241640 -53.618526 -7.219550 16.688334 -175.489777 -73.317341 -172.368106 6.674119 -11.314935 -31.537130 28.331543 -7.496413 -5.807606 50.066512 -15.113898 23.714152 -128.525916 80.954990 -119.043668 5.884659 15.681934 -10.681882 
-1.410128 0.216402 0.960893 101.589827 -2.039917 86.445130 -5.134234 1.484767 4.926091 -7.881790 -17.946087 30.473773 6.650886 7.167360 -18.516754 0.000000 -0.000000 0.000000 -3.666075 -3.368378 -32.210958 -3.184276 -6.328084 97.147777 7.559125 -10.605373 8.331485 0.000000 -0.000000 0.000000 -1.823032 -7.285966 22.556958 0.658172 1.823216 -10.377062 -0.215420 -2.532104 5.030097 0.445175 -2.880203 -19.881249 1.085550 4.383064 4.237011 -29.590316 8.547601 -5.325465 -57.971001 -11.549162 16.489151 172.719159 -70.712049 -158.601143 7.309776 -11.456389 -31.305513 25.840003 -10.642537 -5.222968 49.370741 -17.371170 22.223263 -169.277700 80.959304 -158.889454 6.292291 15.722595 -14.608806 
-1.290880 0.215581 0.986538 102.452468 -0.089945 88.226766 0.556385 3.382786 12.001366 -6.992395 -19.678210 24.649626 -2.539526 3.461851 -4.158264 0.000000 -0.000000 0.000000 -3.773015 -2.005118 -36.760705 -4.164820 -11.354102 82.940756 5.998456 -8.693191 7.876720 0.000000 -0.000000 0.000000 -0.677529 -10.877227 19.963753 1.887625 1.061659 -8.742698 0.866964 -3.974388 3.525315 -0.043889 -0.749290 -19.356361 0.579903 5.487484 2.846075 -28.508071 9.918696 -4.794970 -61.657129 -13.131294 17.547521 167.362404 -67.790323 -155.087125 8.102582 -11.390970 -36.445524 23.994450 -13.288394 -4.276985 47.978163 -17.969273 21.629452 168.936555 78.541841 -179.535545 6.085816 16.356974 -18.134846 
-1.136740 0.215009 1.018976 99.854135 1.263390 90.171727 5.271244 6.049827 19.493581 -4.004182 -17.382264 15.462292 -15.165029 3.371825 27.572394 0.000000 -0.000000 0.000000 -2.952689 1.565291 -37.719902 -4.063592 -15.488218 58.910233 6.514116 -5.489533 8.209314 0.000000 -0.000000 0.000000 0.391689 -13.183712 15.740241 2.584440 2.037686 -5.434772 1.523767 -3.503514 1.299491 -0.619634 1.757338 -17.584676 0.517177 4.296163 0.033476 -26.774993 11.694149 -4.362268 -62.725675 -13.278051 18.905765 168.893359 -67.041913 -155.937079 6.277363 -12.530246 -36.209814 22.434983 -15.787838 -3.316511 48.292283 -20.190243 19.971023 160.204000 77.311907 173.982977 3.218811 16.658563 -20.971209 
-1.046185 0.216082 1.029783 98.556315 0.725396 91.617543 4.309265 5.947961 21.469169 -2.619620 -18.015931 14.264532 -13.921155 4.190276 31.976832 0.000000 -0.000000 0.000000 -2.827615 2.671881 -37.108463 -3.590198 -16.295486 42.393225 9.220942 -6.093795 9.556949 0.000000 -0.000000 0.000000 0.526897 -13.462342 13.356489 2.630235 1.914621 -4.341519 1.521005 -3.393641 0.524990 -0.712737 0.701982 -17.413489 0.718702 5.012779 -1.017884 -25.770739 12.483388 -3.504318 -61.233805 -12.952412 18.878300 172.259545 -67.174890 -156.534503 5.570576 -13.167268 -34.816964 21.003464 -16.348191 -3.688055 50.048619 -21.936422 20.577337 164.544778 78.071515 179.453642 4.834002 17.081814 -21.696895 
-0.925978 0.216846 1.034778 97.114623 0.073522 91.354642 0.437869 4.254720 21.705156 -1.950904 -20.231925 24.284662 -10.779882 4.457995 27.574989 0.000000 -0.000000 0.000000 -1.355811 2.204954 -32.079494 -1.689297 -15.249304 21.908191 12.457606 -5.399349 9.410300 0.000000 -0.000000 0.000000 0.843325 -12.253997 14.416949 1.911527 0.727629 -5.718908 1.338398 -3.679250 1.411422 -0.579362 1.383258 -19.389897 1.122211 4.940971 0.175377 -24.814475 12.857098 -3.143972 -59.672858 -11.944688 19.323221 176.263828 -68.416277 -159.433615 6.045843 -13.758207 -34.830888 21.209111 -16.411418 -4.159887 51.874939 -22.094206 21.052741 172.639476 78.786167 -171.329930 4.569895 16.909741 -20.121245 
-0.806606 0.215584 1.027095 94.671439 0.058360 90.868172 -2.456756 2.907992 19.188685 -2.601471 -17.301123 39.507003 -11.251753 5.254192 22.658496 0.000000 -0.000000 0.000000 1.939108 1.084681 -28.364823 -2.104335 -15.107943 12.310534 13.892493 -4.511057 8.844284 0.000000 -0.000000 0.000000 1.791866 -9.559989 14.806706 1.564989 -0.215852 -5.300450 1.004078 -4.112734 1.772033 -0.834494 1.228875 -19.707776 0.883628 4.493792 -1.230907 -23.943971 11.927717 -1.622357 -59.973705 -9.936027 18.672299 177.433626 -72.056017 -161.176622 6.243377 -13.776632 -35.767299 21.475209 -15.095664 -3.141955 54.828229 -19.612230 20.020715 -176.793432 80.578755 -159.759592 3.880376 17.170146 -18.849379 
-0.689939 0.215881 1.008921 92.085103 0.703838 89.557545 -2.853270 2.946026 14.937612 -4.742411 -12.794595 57.375634 -8.359574 4.607242 23.190326 0.000000 -0.000000 0.000000 4.205616 2.018015 -25.940476 -1.766298 -13.243774 15.952080 8.702557 -4.953805 7.183024 0.000000 -0.000000 0.000000 2.370905 -8.761026 17.224501 1.811365 0.577079 -5.871982 1.019875 -3.771745 2.449941 -1.532157 0.486057 -20.737845 0.238400 5.146806 -0.832636 -24.172562 11.759898 -1.516302 -61.312451 -6.973319 17.781309 179.332838 -77.561063 -164.020853 7.111431 -12.198916 -33.248186 21.919506 -12.896427 -3.509777 56.032734 -16.239351 19.966900 -164.362291 82.044384 -148.082316 4.155137 15.319917 -16.650793 
-0.574417 0.214772 0.981174 89.008472 1.850641 88.379075 -0.099306 5.020524 8.557958 -5.547211 -7.515844 74.840498 -4.333295 6.380676 21.219054 0.000000 -0.000000 0.000000 6.910226 5.024890 -24.357727 -0.402781 -7.761415 28.772497 -4.610714 -7.508394 -4.863582 0.000000 -0.000000 0.000000 2.490016 -8.323283 19.941409 2.327771 2.178305 -7.558801 1.112982 -3.132508 3.593118 -1.293106 0.823741 -21.818165 -0.896169 5.584140 1.960798 -25.791971 12.045892 -1.907038 -59.884760 -3.141512 15.263840 -165.231531 -81.798646 -177.582000 5.627682 -11.192237 -32.238071 24.520303 -9.724307 -3.807932 53.856574 -11.811415 19.583462 -162.037377 82.533940 -145.504961 4.546633 14.775538 -18.000815 
-0.438941 0.214515 0.948539 86.125443 1.667042 89.657616 2.177815 3.078718 -5.278754 -4.518841 0.907544 93.306565 -2.194527 8.829023 15.235036 0.000000 -0.000000 0.000000 10.130701 8.244601 -20.931339 -1.625395 -3.367841 38.276735 -9.191745 -16.823698 -18.306147 0.000000 -0.000000 0.000000 0.976450 -5.493707 18.984105 4.133271 2.521831 -6.282798 0.945381 -2.491266 4.537953 0.116880 2.764139 -25.627177 -3.464060 5.227623 5.506785 -28.882842 13.002703 -1.872055 -56.562263 0.423349 14.289973 -138.255269 -84.209941 153.327037 5.703626 -10.329638 -31.902741 29.821288 -6.278750 -5.730087 48.660876 -3.836088 22.609735 -156.859072 78.707592 -139.392252 7.160784 13.682720 -17.856193 
-0.329371 0.216631 0.943003 86.010795 0.126531 89.874021 2.345502 0.658966 -16.680753 -4.712972 5.320341 100.603637 -0.365628 6.949490 8.716104 0.000000 -0.000000 0.000000 9.721743 6.899072 -12.755584 -1.615053 -1.366389 37.786593 -8.028154 -19.073342 -24.238141 0.000000 -0.000000 0.000000 -0.549363 -2.840186 19.500355 4.712508 1.186100 -6.504752 0.831783 -2.256008 4.442514 1.445424 3.569738 -26.431506 -4.797210 4.704262 6.656027 -28.016276 15.148976 -1.020848 -55.785130 3.900518 12.828057 -123.357361 -81.263768 140.771871 3.591089 -11.028804 -32.449588 29.585961 -5.997034 -7.534247 50.460730 3.600018 23.515242 -167.176131 73.408481 -147.834890 10.246524 15.117500 -20.245051 
